<?xml version="1.0" encoding="utf-8"?>
<!-- Generator: Adobe Illustrator 19.2.1, SVG Export Plug-In . SVG Version: 6.00 Build 0)  -->
<svg version="1.1" id="layer" xmlns="http://www.w3.org/2000/svg" xmlns:xlink="http://www.w3.org/1999/xlink" x="0px" y="0px"
	 viewBox="0 0 652 652" style="enable-background:new 0 0 652 652;" xml:space="preserve">
<style type="text/css">
	.st0{clip-path:url(#SVGID_2_);fill:url(#SVGID_3_);}
	.st1{fill-rule:evenodd;clip-rule:evenodd;fill:#FFFFFF;}
</style>
<title>HATCH 2020 LOGO</title>
<g>
	<defs>
		<path id="SVGID_1_" d="M183.2,70.9c-61.5,0-111.3,49.8-111.3,111.3v277.3c0,61.5,49.8,111.3,111.3,111.3h277.3
			c61.5,0,111.3-49.8,111.3-111.3V182.2c0-61.5-49.8-111.3-111.3-111.3H183.2z"/>
	</defs>
	<clipPath id="SVGID_2_">
		<use xlink:href="#SVGID_1_"  style="overflow:visible;"/>
	</clipPath>
	
		<linearGradient id="SVGID_3_" gradientUnits="userSpaceOnUse" x1="-631.2791" y1="857.7877" x2="-626.0616" y2="857.7877" gradientTransform="matrix(0 95.8318 -95.8318 0 82525.2656 60567.5352)">
		<stop  offset="0" style="stop-color:#60B4E7"/>
		<stop  offset="1" style="stop-color:#6461E0"/>
	</linearGradient>
	<rect x="71.9" y="70.9" class="st0" width="500" height="500"/>
</g>
<path class="st1" d="M129.6,261.4c-6.6,8.3-12.5,17.7-17.1,27.9c-4.6,10.2-8.1,21.1-9.9,32.5c-8.8,62.4,29.1,72.3,35.5,73.5
	c33.2,3.9,57.7-14.2,69.2-25.3c4.2,20.8,24.9,21.1,34.1,11.7c2.3-2.4,4.2-5.3,5.6-8.4c5.4,19.7,22.7,13,24.7,12.1
	c9.7-3.6,19.7-17.1,26.9-28.4c4.5,15.5,13.3,32.1,30.1,30.3c10.1-0.3,35.5-27.3,37.9-23.8c2.3,2.9,3,8.3,2.8,16.3
	c-0.2,8,6.2,8.4,9.1,7.6c4.4-1.2,7.2-10,11.9-17.6c3.6-6,6.4-9.3,10-13.3c1.8-2,10.1-10.5,15.9-7.6c5.8,2.9,6.4,8.9,6.8,12.2
	c0.4,3.3,0.5,6.8,0.6,10.6c-0.2,13.2,6,15.1,7.8,15.6c14.4,3.9,15.3-23.2,25.8-33.2c1-1,10.2-10.5,15.5,5c7.6,28.1,31,38.6,62.5,23
	c5.8-2.9,7-4,10.2-6.4c0.8-0.6,1.2-1.5,1.2-2.4v0c0-0.5-0.1-1-0.4-1.5c-0.8-1.5-2.7-2-4.2-1.2l0,0c-3.2,1.8-13.9,5.4-17.3,6.6
	c-12.7,2.1-28.3,1.6-35.9-17c-2.3-5.6-4.6-10.6-8.5-15.9c-4.5-6-19.1-13.1-32.7-0.3c-3.5,3.3-6.2,6.9-8.4,10.4
	c-0.9,1.5-1.8,2.9-2.6,4.4c-0.1-0.2-0.1-0.4-0.2-0.6c-1.2-4.2-5.1-19.5-21.1-22.1c-2.2-0.2-11.1-1.2-23.5,12.4
	c-4.3,4.7-7.9,9.7-11.3,14.8c0,0,0,0,0,0c-0.6-2.7-1.3-5.3-2-6.4c-10.5-16.2-26.4-3.3-33.2,1.5c-15.3,10.8-22.5,25.3-31.8-7.7
	c-1.2-4.6-2.2-9.3-2.9-14.2c9.3-15.9,28.3-64.1,17.4-96.5c-0.7-2-4.5-12.5-13.6-11.8c-1.3,0.1-11.7-1-17.4,28.1
	c-5.3,28.1-4.1,64.3-2.8,76.3c0.1,1.2,0.4,3.7,0.9,6.9c-9,15.4-20.8,32.9-28,33.7c-9.3,1.1-6.7-7.6-12.4-26.7
	c-1-2.5-4.1-14.3-18.3-13.7c-6.9,0.3-14.3,2.1-24.3,13.1c-16.3,17.8-53.4,44.6-79.9,27.8c-2.9-2.2-17.2-14-11.9-49.2
	c1.6-9.6,4.5-19.2,8.5-28.1c4-8.9,8.9-17.2,14.6-24.6c27.3-33.5,50.9-37.5,55.5-37.3c12,0,15.1,15.5,15,15.4
	c0.3,2.7,2.7,4.7,5.4,4.5c2.7-0.3,4.7-2.7,4.4-5.4c0-0.1,0-5.1-2-9.7c-1.9-6.1-7.3-11.8-10.4-13.8c-3.9-2.7-9-4.1-15-4.1
	C178.8,221.5,153.9,233.3,129.6,261.4 M308.2,310.4c-0.1-54.6,6.8-67,7.3-66.1c2.6,4.9,8.3,35.7-7.2,69.3
	C308.3,312.5,308.2,311.4,308.2,310.4 M218.3,364c0.2-14.5,18.2-23.5,23-13.5c0.4,0.8,0.7,1.8,0.9,2.7c-0.8,2.7-1.2,6.9-4,12.8
	c-3,6.1-7.7,9.2-11.7,9.2C222,375.2,218.2,371.4,218.3,364"/>
</svg>
